PathFileType	4	(X/Y/Z)	36_1_rein_13_p1_0-435.trc
DataRate	CameraRate	NumFrames	NumMarkers	Units	OrigDataRate	OrigDataStartFrame	OrigNumFrames
59.0	59.0	7	27	m	59.0	327	436
Frame#	Time	RHip			RKnee			RAnkle			RBigToe			RSmallToe			RHeel			LHip			LKnee			LAnkle			LBigToe			LSmallToe			LHeel			Neck			Head			Nose			RShoulder			RElbow			RWrist			RThumb			RIndex			RPinky			LShoulder			LElbow			LWrist			LThumb			LIndex			LPinky			
		X1	Y1	Z1	X2	Y2	Z2	X3	Y3	Z3	X4	Y4	Z4	X5	Y5	Z5	X6	Y6	Z6	X7	Y7	Z7	X8	Y8	Z8	X9	Y9	Z9	X10	Y10	Z10	X11	Y11	Z11	X12	Y12	Z12	X13	Y13	Z13	X14	Y14	Z14	X15	Y15	Z15	X16	Y16	Z16	X17	Y17	Z17	X18	Y18	Z18	X19	Y19	Z19	X20	Y20	Z20	X21	Y21	Z21	X22	Y22	Z22	X23	Y23	Z23	X24	Y24	Z24	X25	Y25	Z25	X26	Y26	Z26	X27	Y27	Z27	
327	5.5423728813559325	0.316001979235847	0.4875938825161206	-0.1497622744571936	0.3510588115360515	0.646909285782361	0.2790565717341978	0.36536922780958	0.7508456421171644	0.7185442200450968	0.3235025796990929	0.5036959630431798	0.7342534703150423	0.393610979789706	0.5456348552535387	0.7440111132146275	0.35004236988557863	0.8436333717292183	0.7873540578139204	0.1101429664096616	0.5335459861283959	-0.12643372902528832	0.14063679018146372	0.6494005452226247	0.3019349769509216	0.17923311144710005	0.7103604057973226	0.7101464052989014	0.1833195084885264	0.5206117624097035	0.7408422077393186	0.1277569417623785	0.5627729048219617	0.7543753772986183	0.19497351626482257	0.7986083019080954	0.790351798787875	0.16461964235234336	0.4775910880047533	-0.7542493474610136	0.14022697637020573	0.39031428862882217	-1.0291025569059313	0.14825235195018183	0.34741534419026887	-0.8466550140782577	0.33452973795997965	0.5173587013364838	-0.6947565700826666	0.40243751477673156	0.5386135396609764	-0.4201909371330059	0.34697069595429164	0.30205404377661466	-0.33571512538056064	0.29550483045366877	0.17013872281049663	-0.35801614487341377	0.3005694429026977	0.13643550485577413	-0.3247253026080139	0.2939428936768866	0.21002936863839766	-0.26476478217206273	-0.008440275787208431	0.4775500777698176	-0.6729939175814578	-0.025884122315148136	0.5301739387684861	-0.4014777438276673	0.06422428364627734	0.30879763177349495	-0.2853644699620443	0.10548151298860288	0.1845332978684789	-0.28065823354822866	0.10894940098121746	0.15235289298450075	-0.2548246616242961	0.09767451710400368	0.1978587569736574	-0.19511629509563222
328	5.559322033898305	0.32024451900572753	0.48933490534546553	-0.1498810939382535	0.35102266144263317	0.646825773479859	0.2789689916653696	0.3654210009808701	0.7508246267885358	0.7185333128784325	0.31994877689014567	0.49172865969996504	0.728942004939584	0.3936305295311433	0.5450683918534039	0.7437567682498603	0.35007328510107033	0.8435698124948259	0.7875104881335548	0.11020730713035039	0.5335174922008806	-0.12645029835103125	0.14068072477491392	0.6495274740790613	0.3019981875143316	0.17796819261293542	0.7085315925811396	0.7049509370767247	0.18331761634881555	0.5203264368664795	0.7406740625332038	0.12777308521401998	0.5626685880560991	0.7542829834403302	0.1940740954452622	0.7972034086838621	0.786668433108048	0.1646335879820531	0.477609029163424	-0.7542090757093443	0.1402949811051834	0.39043925842846106	-1.0291554380583392	0.14839330871541537	0.34752857167234746	-0.8467612681872467	0.33455046359116924	0.5173116591249198	-0.694760016993264	0.402493306658599	0.5385917604196978	-0.4201817427090221	0.34704226167027863	0.3022998810293336	-0.33570925027382204	0.29553034343838036	0.1701135118492388	-0.3579996534659133	0.2970129391442682	0.13617666248359545	-0.3243661647934436	0.2938997115514139	0.20997251369129724	-0.2647498998830668	-0.008410831138566255	0.4774696276351817	-0.6729893381369725	-0.02531111260008021	0.5314006751406987	-0.39745989072617594	0.06427655846214528	0.30874229255610053	-0.2854159694154823	0.10254500006074664	0.183179864229178	-0.2774334908864112	0.10743224131838426	0.1424338470605703	-0.2523408282939772	0.09813671458530392	0.1975976458087453	-0.1920409260168549
329	5.576271186440678	0.3202707228601857	0.48915334795664817	-0.14985907261763468	0.35071507688359493	0.6476758350101256	0.2833884584350156	0.3648498138812057	0.7515909260842998	0.723264491535023	0.3200621166768933	0.49184042789461757	0.7289129870654495	0.39370060811803254	0.5454195603374212	0.7438191479231459	0.35007011526200665	0.8436179002806078	0.7877117291475149	0.11026560037775474	0.5334572531422869	-0.1264175143879913	0.1407019917950304	0.6494238777774525	0.3020185280375038	0.1780130218851232	0.7087392118744977	0.7050967171954469	0.1833316944933785	0.5201912997909814	0.7406083576844463	0.127861345002977	0.5624006219546187	0.7541207112836457	0.19402546279694216	0.7977869451094838	0.7874180861633485	0.16863987294141936	0.4649630825660991	-0.7543972177298971	0.1403043342190195	0.39024422796196556	-1.0292201578055908	0.1477816861908971	0.34587470481114263	-0.8495502142150625	0.3380194545285099	0.5036924331126884	-0.6950604249849133	0.40246296439246443	0.5385456099160405	-0.4201958123266711	0.3508859022241825	0.30300132297951354	-0.33616337878219077	0.2953886679934356	0.1812233322851192	-0.3603431560702599	0.2969768474883034	0.14713163634438456	-0.31999332815927256	0.29731859488924556	0.2120178703258276	-0.2646947165331734	-0.008398629176123617	0.4775183876238197	-0.6730069137195055	-0.025855117621758423	0.5301134948988441	-0.4015279659819705	0.06422033173660806	0.30876902560564057	-0.2853416256106958	0.10249065023876772	0.18350669000677652	-0.2773930756164923	0.10355445990062671	0.1529317529467053	-0.25018982344488694	0.0981528861414293	0.19766138698255856	-0.19200056593448878
330	5.593220338983051	0.3154745721071346	0.4877595305428428	-0.15326747607009344	0.3508031990904057	0.6481982764982872	0.2839508851386651	0.36488150875013725	0.751667596048216	0.7233496915117885	0.31985881100795843	0.4915724241875349	0.7289147190183245	0.3935476378913487	0.5452915650249505	0.743869586728858	0.35008409567899673	0.8436212079329244	0.787866537816962	0.11015007485792261	0.5336878903188059	-0.12627086993627698	0.14065086525430842	0.6495009747384641	0.30206843860621124	0.17809432686906376	0.7086644002717648	0.7050390505375209	0.18229495905035295	0.5181569083872187	0.735970927769208	0.1278600822953601	0.5624539489082158	0.7541425022475658	0.19972080541061746	0.8039472607561443	0.7894799204632975	0.16459910587559243	0.4774846337086509	-0.7543069822028781	0.14027794441535438	0.3902594077242137	-1.029215424809074	0.1478360676288379	0.346161361829844	-0.8495934825813668	0.33450465676365	0.5174001966722813	-0.6947246152141555	0.40251194086451086	0.5385104203702886	-0.4201921651375179	0.351099942740756	0.3030815188536739	-0.3363228219726702	0.29530525650895967	0.18168078267418306	-0.3602454452100424	0.2970425249312835	0.14717379318734836	-0.32295830373217654	0.2975495947525562	0.212206198698752	-0.2647932885070459	-0.008410567285216912	0.4775336586224637	-0.6729664684625286	-0.025323012434579364	0.5314177791255201	-0.3974457792024035	0.06416725972352402	0.3088277725970649	-0.28532508125334527	0.10239024546902978	0.18336212711532332	-0.27748699256562087	0.1048712265767421	0.16325073757590502	-0.2526653996319787	0.09423917552166283	0.2074741353185099	-0.18994001456124415
331	5.610169491525424	0.3160527060187308	0.4872718809471691	-0.149600505628663	0.3511369247379529	0.6470945537727542	0.27923316924202274	0.3654118840511687	0.7507957191836229	0.7185235493889773	0.323463222949138	0.503398074391852	0.7341151572665301	0.39352489180396205	0.5454663780415514	0.7440073737345039	0.3500751490552474	0.8435722531824598	0.7876013785821091	0.11025769383902351	0.5335028670370802	-0.12632493993268973	0.14066286612999485	0.6495338647290481	0.3020821908265712	0.17812929040620548	0.7086429718357778	0.7049758200895672	0.18230141989918844	0.518421925857523	0.7360975380451112	0.12779317539631746	0.5628055933335849	0.7543101073506691	0.2045547935196434	0.7832086167884145	0.7740279325109148	0.16459142909362406	0.4774561737038081	-0.7543258717576093	0.14023283021937513	0.3903823259623017	-1.029229283193301	0.14789802508352354	0.3457242773648861	-0.8496196652621107	0.33449177500163313	0.5173912011120363	-0.6947306789686324	0.4058714493324023	0.524440029748925	-0.42509822289773347	0.35114645199969524	0.3029373785811322	-0.33980869412702747	0.29258255978090913	0.1934328181673393	-0.3548624481150476	0.2970037953906579	0.1474167605874151	-0.3229193022238562	0.29750372787327484	0.2123031613794587	-0.26468524175201075	-0.007951807853673562	0.47766705094473816	-0.6694778673860595	-0.025322843414441503	0.5313549169812104	-0.39748071829532455	0.06180343982807683	0.2974375471632761	-0.2866029924134416	0.1024070597860642	0.18354950654640487	-0.2773547585847042	0.10497476841516533	0.16311846347861456	-0.25268545795602526	0.09416431138963073	0.2075854056377517	-0.18986097555839554
332	5.627118644067797	0.3203148032427376	0.4891654099207664	-0.14969075619031888	0.3508211976583463	0.6479144590939948	0.28353361425641715	0.36542286059093554	0.7507489061055754	0.7184559743708214	0.3198470318897925	0.4916275632639364	0.728961976470733	0.3935680420133747	0.5451655173802357	0.7438486615164711	0.350093045068818	0.8436138650646644	0.7875025321162255	0.11025847057638631	0.5336335114763228	-0.12630372322001687	0.1406192920290128	0.6496249676104963	0.3021131224622586	0.17805820562718014	0.7083128474209567	0.704745519982565	0.18229198719943585	0.518493890912395	0.7361133772178922	0.12778526795585252	0.5628456406322152	0.7543359266095157	0.2040432709911135	0.7848323289284074	0.7796862408928665	0.16864434232728964	0.46497691507067074	-0.7543619295008893	0.14024750438078232	0.39044091016718535	-1.0292301739999579	0.14783849909797311	0.3459666911158567	-0.8496077763884597	0.3345105536619845	0.517299205575	-0.6947525931355519	0.41025204712724017	0.5245737304654742	-0.4255488527740663	0.3511707739654137	0.30279947976345084	-0.3398210080943571	0.2960595742407143	0.18231248288088597	-0.35660837475834506	0.2970536160633605	0.14722739192913795	-0.32286660726099636	0.29835700375734014	0.21307942497207855	-0.26159800707743797	-0.007936283194213275	0.47768830838176485	-0.6695051111481054	-0.025321066098520383	0.5313555644824904	-0.3974723756742945	0.061765128610245204	0.2973303613170193	-0.2866225661077919	0.10241483134043808	0.18326244097072816	-0.2774167630444365	0.10314860136451569	0.15314694118474798	-0.2540757642210759	0.09813811760915318	0.1975798413368385	-0.19205905890557418
333	5.6440677966101696	0.32034074522130945	0.4892171713707664	-0.1498258189296235	0.3510479159334595	0.6469151280971182	0.27912257023722914	0.3653893613925365	0.7507605452960775	0.7184419689299483	0.319660805949327	0.49141634375279775	0.7290002399392507	0.39350214586957777	0.545005476406171	0.7438651436841595	0.3500496260934275	0.8435814880492128	0.7874989256943327	0.11029106120339252	0.5335823776530347	-0.1263260871460963	0.14064524849147764	0.6494292062473922	0.30202485230459364	0.17803899713581145	0.7083089955579343	0.7047557288790145	0.18230250521760347	0.5183669002247486	0.7360664290738809	0.12775686581693377	0.5628857146265125	0.7543403569300187	0.19973941623140085	0.8035477399193129	0.7890050940777388	0.16456171412275067	0.47741265474859446	-0.7543126128326908	0.14023667641536697	0.3905518801569198	-1.0291383791404873	0.14821939708486873	0.34621631490924687	-0.8463520055685196	0.3345071205210325	0.5173885682306437	-0.6947120736665514	0.41033294218522537	0.5245050446138653	-0.42230593972290886	0.3510991302159031	0.30227752126640944	-0.33980011452870473	0.2960157614017852	0.18153139908575172	-0.3564629237950041	0.3005810806017329	0.1368058309476602	-0.32194554369369943	0.29829891152967186	0.21314061296323966	-0.2615762530255382	-0.007967586837364383	0.47762073441167685	-0.669486221820176	-0.02521791791062787	0.5311115443794916	-0.39750423977347465	0.06366862500697919	0.30764313009438266	-0.28895527194048665	0.10258215069221502	0.18309727593831063	-0.27738372459159294	0.10555942783558964	0.16240841508173567	-0.24879810445628855	0.09416661597309144	0.20748781365971425	-0.18991468555830293
